<svg xmlns="http://www.w3.org/2000/svg" width="256" height="256" viewBox="0 0 100 100"><rect width="100" height="100" rx="20" fill="#000000"></rect><path d="M35.23 67.22L33.97 62.39L21.30 62.39Q20.60 64.91 20.07 67.08Q19.55 69.25 19.06 71.14L19.06 71.14Q18.08 71.49 16.99 71.74Q15.91 71.98 14.37 71.98L14.37 71.98Q10.80 71.98 9.08 70.76Q7.37 69.53 7.37 67.36L7.37 67.36Q7.37 66.38 7.65 65.40Q7.93 64.42 8.28 63.09L8.28 63.09Q8.77 61.20 9.64 58.37Q10.52 55.53 11.57 52.28Q12.62 49.02 13.81 45.63Q15.00 42.23 16.05 39.19Q17.10 36.14 17.97 33.73Q18.85 31.31 19.34 30.05L19.34 30.05Q20.53 29.35 22.95 28.72Q25.36 28.09 27.81 28.09L27.81 28.09Q31.31 28.09 34.00 29.11Q36.70 30.12 37.47 32.36L37.47 32.36Q38.73 35.93 40.20 40.76Q41.67 45.59 43.14 50.74Q44.61 55.88 46.01 60.89Q47.41 65.89 48.46 69.74L48.46 69.74Q47.62 70.72 45.94 71.32Q44.26 71.91 41.95 71.91L41.95 71.91Q38.52 71.91 37.19 70.79Q35.86 69.67 35.23 67.22L35.23 67.22ZM28.16 39.08L27.74 39.08Q26.76 41.95 25.57 45.45Q24.38 48.95 23.26 52.94L23.26 52.94L31.94 52.94Q30.96 48.95 29.95 45.42Q28.93 41.88 28.16 39.08L28.16 39.08ZM92.63 69.74L92.63 69.74Q91.65 70.72 89.80 71.25Q87.94 71.77 85.35 71.77L85.35 71.77Q82.76 71.77 80.45 71.00Q78.14 70.23 76.67 67.29L76.67 67.29L69.74 53.15Q68.69 50.98 67.85 49.06Q67.01 47.13 66.03 44.61L66.03 44.61L65.54 44.75Q65.89 49.16 65.93 52.91Q65.96 56.65 65.96 60.08L65.96 60.08L65.96 71.21Q65.19 71.35 63.65 71.56Q62.11 71.77 60.50 71.77L60.50 71.77Q56.93 71.77 55.57 70.55Q54.20 69.32 54.20 66.17L54.20 66.17L54.20 30.96Q55.18 29.56 57.21 28.86Q59.24 28.16 61.55 28.16L61.55 28.16Q64.14 28.16 66.49 28.97Q68.83 29.77 70.23 32.64L70.23 32.64L77.23 46.78Q78.28 48.95 79.12 50.88Q79.96 52.80 80.94 55.32L80.94 55.32L81.22 55.25Q80.94 51.89 80.91 48.92Q80.87 45.94 80.87 43.21L80.87 43.21L80.87 28.58Q81.64 28.44 83.18 28.23Q84.72 28.02 86.33 28.02L86.33 28.02Q89.90 28.02 91.27 29.25Q92.63 30.47 92.63 33.62L92.63 33.62L92.63 69.74Z" fill="#fff"></path></svg>