<?xml version="1.0" standalone="no"?>
<!DOCTYPE svg PUBLIC "-//W3C//DTD SVG 20010904//EN"
 "http://www.w3.org/TR/2001/REC-SVG-20010904/DTD/svg10.dtd">
<svg version="1.0" xmlns="http://www.w3.org/2000/svg"
 width="398.000000pt" height="398.000000pt" viewBox="0 0 398.000000 398.000000"
 preserveAspectRatio="xMidYMid meet">
<metadata>
Created by potrace 1.14, written by Peter Selinger 2001-2017
</metadata>
<g transform="translate(0.000000,398.000000) scale(0.100000,-0.100000)"
fill="#000000" stroke="none">
<path d="M2207 2706 c-11 -27 -56 -47 -128 -58 -40 -5 -94 -18 -121 -28 -46
-17 -47 -17 -38 0 14 27 13 30 -13 30 -50 0 -123 -30 -159 -66 -21 -20 -38
-40 -38 -45 0 -4 -16 -11 -36 -15 -67 -12 -132 -90 -153 -181 l-8 -38 -15 33
c-16 36 -22 33 -51 -24 -21 -40 -26 -82 -16 -118 7 -24 4 -36 -16 -62 -36 -47
-46 -79 -50 -164 -1 -41 -6 -88 -11 -105 -4 -16 -8 -66 -8 -109 -1 -79 -1 -80
-30 -87 -40 -11 -61 -33 -87 -92 -21 -45 -24 -68 -24 -177 0 -121 1 -127 35
-205 30 -69 40 -83 75 -100 l40 -20 -3 -75 c-2 -41 2 -95 9 -120 24 -93 113
-243 198 -339 29 -31 33 -51 10 -51 -5 0 -37 -19 -72 -43 -56 -39 -77 -47
-217 -77 -161 -35 -226 -58 -255 -90 -17 -18 -16 -20 6 -29 13 -5 62 -25 109
-45 103 -42 332 -107 455 -129 371 -66 772 -43 1130 66 86 27 228 76 234 83 2
2 -4 15 -13 29 -21 33 -109 82 -160 90 -127 21 -278 66 -321 95 -25 17 -59 37
-76 44 l-31 13 38 29 c63 46 113 105 147 174 32 64 34 65 69 62 50 -4 84 15
165 95 127 125 187 310 129 396 -21 30 -22 38 -11 54 7 11 38 77 69 149 50
116 63 154 65 190 1 6 13 14 29 18 15 3 36 13 46 21 19 15 19 16 -6 42 -19 21
-24 33 -18 48 4 11 8 54 9 94 1 58 -4 85 -23 126 -23 50 -23 52 -5 77 10 13
23 37 29 52 10 27 10 27 -28 20 -40 -7 -39 -7 -64 -5 -14 1 -18 10 -18 38 0
68 -58 152 -155 224 -11 8 -29 32 -41 54 -12 23 -41 54 -70 72 -27 18 -71 49
-98 68 -26 19 -67 40 -90 47 -47 13 -175 17 -223 6 -25 -6 -33 -4 -33 6 0 16
-38 66 -50 66 -4 0 -10 -6 -13 -14z"/>
</g>
</svg>
