<svg xmlns="http://www.w3.org/2000/svg" width="1024" height="1024" viewBox="0 0 1024 1024" version="1.1"><path d="M 321.491 254.865 C 316.404 257.176, 311.390 262.870, 308.310 269.833 C 302.505 282.961, 299.372 306.421, 300.304 329.802 L 300.874 344.105 294.786 352.802 C 260.109 402.351, 222.625 463.829, 202.049 504.902 C 180.966 546.987, 166.794 590.762, 141.885 690.728 L 129.868 738.955 136.149 748.728 C 153.326 775.457, 171.374 798.196, 192.966 820.312 C 218.267 846.228, 237.534 862.240, 266.500 881.425 C 287.099 895.068, 295.242 899.742, 317.416 910.649 C 372.516 937.752, 432.156 952.770, 493 954.864 C 552.903 956.924, 609.170 948.450, 661.481 929.488 C 668.290 927.019, 674.345 925, 674.937 925 C 675.529 925, 673.673 921.288, 670.812 916.750 C 636.688 862.628, 602.078 803.004, 589.982 777.500 C 572.401 740.433, 561.957 702.644, 561.789 675.500 C 561.726 665.289, 562.086 662.367, 564.203 655.902 C 569.915 638.458, 581.436 627.766, 599 623.608 C 602.762 622.718, 614.979 621.633, 628 621.034 C 657.193 619.691, 672.899 617.386, 694.500 611.275 C 749.109 595.824, 790.157 560.562, 809.484 512.500 C 817.331 492.987, 821.806 469.548, 820.041 457.211 C 817.827 441.739, 810.997 435.728, 795.796 435.874 C 789.192 435.937, 786.266 435.321, 775.296 431.559 C 725.139 414.357, 677.947 390.900, 647.669 368.120 C 635.971 359.319, 625.728 350.067, 613.909 337.627 C 608.750 332.197, 602.047 326.071, 599.014 324.013 C 580.696 311.584, 555.509 303.633, 520.914 299.359 C 503.477 297.204, 457.429 296.946, 436.669 298.886 L 421.838 300.272 416.669 295.282 C 404.863 283.885, 387.258 271.194, 374 264.522 C 353.950 254.433, 331.522 250.308, 321.491 254.865" stroke="none" fill="#f5f5f5" fill-rule="evenodd"/><path d="M 483 62.676 C 392.944 69.207, 311.657 99.274, 241.500 152.004 C 167.442 207.666, 111.009 284.914, 81.554 370.946 C 48.003 468.941, 49.322 578.217, 85.224 675 C 133.501 805.142, 239.341 906.908, 371.094 949.865 C 400.066 959.311, 435.389 966.766, 467.500 970.212 C 486.057 972.204, 541.755 971.866, 560.496 969.648 C 654.878 958.480, 736.899 922.866, 807.629 862.342 C 821.254 850.683, 848.054 823.711, 859.139 810.500 C 918.958 739.213, 953.528 657.120, 964.205 561 C 966.180 543.225, 965.842 488.201, 963.644 469.500 C 957.501 417.245, 945.364 373.443, 924.308 327.533 C 885.652 243.251, 817.664 168.850, 736.483 121.990 C 677.872 88.158, 613.357 68.395, 544.050 63.039 C 531.841 62.096, 494.096 61.871, 483 62.676 M 321.491 254.865 C 316.404 257.176, 311.390 262.870, 308.310 269.833 C 302.505 282.961, 299.372 306.421, 300.304 329.802 L 300.874 344.105 294.786 352.802 C 260.109 402.351, 222.625 463.829, 202.049 504.902 C 180.966 546.987, 166.794 590.762, 141.885 690.728 L 129.868 738.955 136.149 748.728 C 153.326 775.457, 171.374 798.196, 192.966 820.312 C 218.267 846.228, 237.534 862.240, 266.500 881.425 C 287.099 895.068, 295.242 899.742, 317.416 910.649 C 372.516 937.752, 432.156 952.770, 493 954.864 C 552.903 956.924, 609.170 948.450, 661.481 929.488 C 668.290 927.019, 674.345 925, 674.937 925 C 675.529 925, 673.673 921.288, 670.812 916.750 C 636.688 862.628, 602.078 803.004, 589.982 777.500 C 572.401 740.433, 561.957 702.644, 561.789 675.500 C 561.726 665.289, 562.086 662.367, 564.203 655.902 C 569.915 638.458, 581.436 627.766, 599 623.608 C 602.762 622.718, 614.979 621.633, 628 621.034 C 657.193 619.691, 672.899 617.386, 694.500 611.275 C 749.109 595.824, 790.157 560.562, 809.484 512.500 C 817.331 492.987, 821.806 469.548, 820.041 457.211 C 817.827 441.739, 810.997 435.728, 795.796 435.874 C 789.192 435.937, 786.266 435.321, 775.296 431.559 C 725.139 414.357, 677.947 390.900, 647.669 368.120 C 635.971 359.319, 625.728 350.067, 613.909 337.627 C 608.750 332.197, 602.047 326.071, 599.014 324.013 C 580.696 311.584, 555.509 303.633, 520.914 299.359 C 503.477 297.204, 457.429 296.946, 436.669 298.886 L 421.838 300.272 416.669 295.282 C 404.863 283.885, 387.258 271.194, 374 264.522 C 353.950 254.433, 331.522 250.308, 321.491 254.865" stroke="none" fill="#d13532" fill-rule="evenodd"/></svg>